HIERARCHY
ROOT Hips
{
	OFFSET 0.000000 0.000000 0.000000
	CHANNELS 6 Xposition Yposition Zposition Zrotation Yrotation Xrotation 
	JOINT LHipJoint
	{
		OFFSET 0.000000 0.000000 0.000000
		CHANNELS 3 Zrotation Yrotation Xrotation
		JOINT LeftUpLeg
		{
			OFFSET 1.363060 -1.794630 0.839290
			CHANNELS 3 Zrotation Yrotation Xrotation
			JOINT LeftLeg
			{
				OFFSET 2.448110 -6.726130 0.000000
				CHANNELS 3 Zrotation Yrotation Xrotation
				JOINT LeftFoot
				{
					OFFSET 2.562200 -7.039590 0.000000
					CHANNELS 3 Zrotation Yrotation Xrotation
					JOINT LeftToeBase
					{
						OFFSET 0.157640 -0.433110 2.322550
						CHANNELS 3 Zrotation Yrotation Xrotation
						End Site
						{
							OFFSET 0.000000 0.000000 0.000000
						}
					}
				}
			}
		}
	}
	JOINT RHipJoint
	{
		OFFSET 0.000000 0.000000 0.000000
		CHANNELS 3 Zrotation Yrotation Xrotation
		JOINT RightUpLeg
		{
			OFFSET -1.305520 -1.794630 0.839290
			CHANNELS 3 Zrotation Yrotation Xrotation
			JOINT RightLeg
			{
				OFFSET -2.542530 -6.985550 0.000000
				CHANNELS 3 Zrotation Yrotation Xrotation
				JOINT RightFoot
				{
					OFFSET -2.568260 -7.056230 0.000000
					CHANNELS 3 Zrotation Yrotation Xrotation
					JOINT RightToeBase
					{
						OFFSET -0.164730 -0.452590 2.363150
						CHANNELS 3 Zrotation Yrotation Xrotation
						End Site
						{
							OFFSET 0.000000 0.000000 0.000000
						}
					}
				}
			}
		}
	}
	JOINT LowerBack
	{
		OFFSET 0.000000 0.000000 0.000000
		CHANNELS 3 Zrotation Yrotation Xrotation
		JOINT Spine
		{
			OFFSET 0.028270 2.035590 -0.193380
			CHANNELS 3 Zrotation Yrotation Xrotation
			JOINT Spine1
			{
				OFFSET 0.056720 2.048850 -0.042750
				CHANNELS 3 Zrotation Yrotation Xrotation
				JOINT Neck
				{
					OFFSET 0.000000 0.000000 0.000000
					CHANNELS 3 Zrotation Yrotation Xrotation
					JOINT Neck1
					{
						OFFSET -0.054170 1.746240 0.172020
						CHANNELS 3 Zrotation Yrotation Xrotation
						JOINT Head
						{
							OFFSET 0.104070 1.761360 -0.123970
							CHANNELS 3 Zrotation Yrotation Xrotation
							End Site
							{
								OFFSET 0.000000 0.000000 0.000000
							}
						}
					}
				}
				JOINT LeftShoulder
				{
					OFFSET 0.000000 0.000000 0.000000
					CHANNELS 3 Zrotation Yrotation Xrotation
					JOINT LeftArm
					{
						OFFSET 3.362410 1.200890 -0.311210
						CHANNELS 3 Zrotation Yrotation Xrotation
						JOINT LeftForeArm
						{
							OFFSET 4.983000 -0.000000 -0.000000
							CHANNELS 3 Zrotation Yrotation Xrotation
							JOINT LeftHand
							{
								OFFSET 3.483560 -0.000000 -0.000000
								CHANNELS 3 Zrotation Yrotation Xrotation
								JOINT LeftFingerBase
								{
									OFFSET 0.000000 0.000000 0.000000
									CHANNELS 3 Zrotation Yrotation Xrotation
									JOINT LeftHandIndex1
									{
										OFFSET 0.715260 -0.000000 -0.000000
										CHANNELS 3 Zrotation Yrotation Xrotation
										End Site
										{
											OFFSET 0.000000 0.000000 0.000000
										}
									}
								}
								JOINT LThumb
								{
									OFFSET 0.000000 0.000000 0.000000
									CHANNELS 3 Zrotation Yrotation Xrotation
									End Site
									{
										OFFSET 0.000000 0.000000 0.000000
									}
								}
							}
						}
					}
				}
				JOINT RightShoulder
				{
					OFFSET 0.000000 0.000000 0.000000
					CHANNELS 3 Zrotation Yrotation Xrotation
					JOINT RightArm
					{
						OFFSET -3.136600 1.374050 -0.404650
						CHANNELS 3 Zrotation Yrotation Xrotation
						JOINT RightForeArm
						{
							OFFSET -5.241900 -0.000000 -0.000000
							CHANNELS 3 Zrotation Yrotation Xrotation
							JOINT RightHand
							{
								OFFSET -3.444170 -0.000000 -0.000000
								CHANNELS 3 Zrotation Yrotation Xrotation
								JOINT RightFingerBase
								{
									OFFSET 0.000000 0.000000 0.000000
									CHANNELS 3 Zrotation Yrotation Xrotation
									JOINT RightHandIndex1
									{
										OFFSET -0.622530 -0.000000 -0.000000
										CHANNELS 3 Zrotation Yrotation Xrotation
										End Site
										{
											OFFSET 0.000000 0.000000 0.000000
										}
									}
								}
								JOINT RThumb
								{
									OFFSET 0.000000 0.000000 0.000000
									CHANNELS 3 Zrotation Yrotation Xrotation
									End Site
									{
										OFFSET 0.000000 0.000000 0.000000
									}
								}
							}
						}
					}
				}
			}
		}
	}
}
MOTION
Frames: 9
Frame Time: 0.008333
25.014924 16.694101 48.166199 -171.248649 -4.383044 -156.427688 -0.847686 -6.545875 -13.893192 -13.111128 15.151089 -65.985560 5.568131 16.407696 37.423124 -5.121259 18.749507 25.971844 3.077200 10.819100 31.672000 13.623107 -4.777296 14.588937 -1.202705 13.667678 -2.211421 3.108597 -4.369011 6.846403 -5.271529 -26.427199 57.592233 -2.538700 9.908000 -28.679300 1.066191 4.832924 18.765365 -0.045723 5.608708 -4.875534 -4.203163 3.116016 -10.351841 0.209859 1.135765 -14.430172 3.061188 0.167618 -1.051977 -0.392300 -0.346200 3.601700 3.646124 -6.194498 -1.307648 -82.839389 4.970356 26.699643 38.152229 -42.973629 -23.885495 -2.455419 -0.100418 -3.722356 32.302816 -7.004537 -4.774600 -7.125000 0.000000 0.000000 5.796700 21.601000 -3.272000 -5.291585 6.953830 -0.894998 90.859548 2.504256 50.507715 -54.841812 49.636134 -36.630131 1.630754 1.039578 3.409964 -18.490564 -1.896467 1.115600 7.125000 0.000000 0.000000 5.326900 -33.199700 1.546300 
24.933807 16.740890 47.790977 -171.503988 -6.710184 -156.304486 -1.250341 -6.857392 -13.644586 -13.174083 14.451747 -65.828130 5.755462 16.688515 38.579247 -4.939837 17.902172 25.138991 3.072200 10.811000 31.645100 14.189473 -4.199908 14.350198 -0.653248 12.410519 -3.197805 2.775727 -5.091718 8.803003 -6.358013 -26.692760 59.962906 -2.113300 9.098100 -26.102700 1.119537 4.378089 19.097331 -0.023367 5.021203 -4.869709 -4.224818 2.772518 -10.444518 0.077604 0.764593 -14.341349 3.267180 -0.285161 -1.239648 -0.217600 -0.549700 3.459500 3.509771 -6.263922 -1.260780 -82.109679 4.111213 27.555178 37.479404 -42.551146 -23.250669 -2.486201 -0.068219 -4.092101 32.392706 -7.134417 -4.920200 -7.125000 0.000000 0.000000 5.861300 21.371100 -3.339500 -5.312190 6.966337 -0.893734 91.021343 2.060723 49.607729 -55.126678 49.748232 -36.958698 1.668557 1.007602 3.472216 -18.836133 -1.710009 1.059500 7.125000 0.000000 0.000000 4.999100 -32.985100 1.476500 
24.854843 16.796403 47.426291 -172.069573 -8.904596 -156.171714 -1.636176 -7.273640 -13.246071 -13.437313 13.868892 -65.636561 5.524748 16.753824 39.651567 -3.381621 14.157496 24.660128 3.011600 10.713800 31.320500 14.502292 -3.335939 13.773806 0.100409 10.561524 -4.570729 2.127791 -6.150289 12.064739 -7.200328 -25.303880 61.733058 -1.263000 7.123800 -20.082700 0.831092 3.995095 19.604622 -0.021128 4.458783 -4.860176 -4.132414 2.444092 -10.545977 -0.164744 0.360401 -14.328387 3.457590 -0.763963 -1.438318 -0.042100 -0.771300 3.348900 3.349544 -6.387520 -1.204213 -81.392447 2.967042 28.401654 36.723694 -42.048805 -22.539778 -2.486253 0.006442 -4.249654 32.287181 -7.527500 -5.225400 -7.125000 0.000000 0.000000 5.728200 20.809000 -3.336000 -5.303580 7.002925 -0.904788 91.068228 1.900008 48.703956 -54.765795 49.609547 -36.691634 1.699303 0.975937 3.168179 -19.116532 -1.402567 0.947200 7.125000 0.000000 0.000000 4.716800 -32.627600 1.433400 
24.775539 16.842399 47.067723 -172.513335 -10.963200 -156.041728 -1.950725 -7.550066 -12.839220 -13.672699 13.353854 -65.443761 5.394375 16.851505 40.663681 -2.020547 10.987321 24.320686 3.084600 10.830700 31.711100 14.692370 -2.721581 13.102522 0.986360 8.290850 -5.822970 1.089352 -7.408901 14.866478 -6.965378 -27.916995 61.902193 -0.253100 3.237300 -8.940000 0.683766 3.692480 20.214133 -0.030162 4.019500 -4.864659 -4.106329 2.179637 -10.735145 -0.483085 -0.105130 -14.298949 3.629132 -1.296380 -1.580686 0.140800 -1.015400 3.308400 3.175763 -6.504280 -1.159030 -80.674483 1.751021 29.411120 36.007686 -41.541212 -21.844925 -2.464612 0.093244 -4.246578 32.055907 -7.975703 -5.537500 -7.125000 0.000000 0.000000 5.483100 20.193200 -3.268200 -5.273041 7.060024 -0.918483 90.922588 1.520720 47.816432 -54.445930 49.496031 -36.448297 1.790346 0.937823 2.771504 -19.948594 -1.105009 0.859000 7.125000 0.000000 0.000000 3.943600 -32.287200 1.229800 
24.695441 16.897346 46.710174 -172.890905 -13.258027 -156.085800 -2.283656 -7.881596 -12.453408 -13.867796 12.909623 -64.967126 5.506493 16.952578 41.559278 -1.687049 9.915683 23.249924 2.778500 10.327500 30.044000 14.610186 -1.769160 12.324402 2.571648 5.441134 -7.292688 0.149004 -8.402016 18.212038 -5.720045 -25.740821 59.600823 -0.444700 4.278800 -11.862500 0.750011 3.225136 20.775866 -0.010840 3.442365 -4.827319 -4.021143 1.832583 -10.701076 -0.644283 -0.387236 -14.174271 3.692309 -1.627221 -1.650680 0.197300 -1.174100 3.215300 3.060282 -6.647287 -1.084118 -80.070477 0.153277 29.953839 35.330296 -41.025610 -21.228366 -2.414078 0.243728 -3.444390 31.895060 -8.591170 -5.982700 -7.125000 0.000000 0.000000 5.246700 19.341000 -3.226400 -5.238891 7.078199 -0.927069 90.765886 1.447851 46.898599 -53.832369 49.264400 -35.957313 1.872738 0.981284 2.364971 -20.582880 -1.464320 1.052600 7.125000 0.000000 0.000000 3.382800 -32.727800 1.018400 
24.617043 16.940623 46.351266 -173.283389 -15.540291 -156.126435 -2.583667 -8.190560 -12.051966 -13.992009 12.427591 -64.424065 5.522786 17.012430 42.436366 -0.838541 7.867275 22.523096 2.685700 10.168000 29.522400 14.427192 -0.873294 11.540534 4.069383 3.127684 -8.739398 -0.898196 -9.445278 21.734622 -5.067775 -24.280398 58.313044 -0.374300 3.929600 -10.878700 0.835547 2.788244 21.478927 -0.000880 2.903096 -4.803339 -3.967942 1.502059 -10.778162 -0.841552 -0.739992 -14.075560 3.795629 -2.040312 -1.744544 0.292200 -1.367900 3.152100 2.934778 -6.787938 -1.019203 -79.510891 -1.226380 30.631106 34.723128 -40.548968 -20.655969 -2.376923 0.357855 -2.967392 31.749465 -9.032739 -6.298100 -7.125000 0.000000 0.000000 5.054800 18.720600 -3.177400 -5.208725 7.109010 -0.937379 90.660816 1.246366 46.003461 -53.313670 49.069200 -35.543921 1.947197 0.987130 1.983939 -21.196054 -1.503692 1.104500 7.125000 0.000000 0.000000 2.822400 -32.785200 0.845400 
24.538306 16.981182 45.993377 -173.682271 -17.813593 -156.211155 -2.855638 -8.478610 -11.637294 -14.112615 11.988902 -63.783586 5.548311 17.043252 43.268181 0.043701 5.792459 21.780877 2.599400 10.016400 29.029800 14.063777 0.045768 10.700855 5.687037 0.925403 -10.319084 -1.970057 -10.456213 25.565849 -4.195824 -22.307607 56.278362 -0.428300 4.199900 -11.639700 0.958791 2.345589 22.233993 0.007300 2.373686 -4.776015 -3.909861 1.177067 -10.853339 -1.031779 -1.079557 -13.964852 3.877301 -2.434884 -1.801057 0.365700 -1.553600 3.113700 2.821803 -6.933202 -0.954610 -79.035830 -2.636474 31.241529 34.191573 -40.102322 -20.150153 -2.329419 0.478837 -2.317220 31.618074 -9.461194 -6.601800 -7.125000 0.000000 0.000000 4.869600 18.116400 -3.125300 -5.171903 7.141720 -0.950187 90.526325 1.065622 45.095767 -52.645236 48.814793 -34.993876 2.024268 0.999287 1.590051 -21.813463 -1.594131 1.182600 7.125000 0.000000 0.000000 2.257900 -32.903600 0.669600 
24.458888 17.018228 45.635602 -174.091286 -20.035088 -156.322137 -3.104985 -8.730449 -11.218654 -14.232266 11.600781 -63.058592 5.590202 17.055879 44.052915 0.920307 3.773098 21.021373 2.523800 9.881000 28.592400 13.569387 0.926119 9.843297 7.296754 -1.094234 -12.038435 -3.004000 -11.405431 29.554357 -3.254501 -20.102469 53.656623 -0.628400 5.072300 -14.114900 1.087758 1.912956 23.017364 0.012628 1.864609 -4.745807 -3.845414 0.867322 -10.928836 -1.213904 -1.406151 -13.836332 3.943067 -2.811081 -1.819989 0.421400 -1.730400 3.097900 2.723533 -7.075412 -0.892692 -78.662033 -4.044857 31.785898 33.746604 -39.697047 -19.719157 -2.277410 0.600167 -1.543926 31.534164 -9.840273 -6.878600 -7.125000 0.000000 0.000000 4.723100 17.570000 -3.087500 -5.130340 7.178147 -0.964381 90.371401 0.894229 44.172665 -51.841637 48.504882 -34.321498 2.104079 1.016119 1.197075 -22.434492 -1.726130 1.284500 7.125000 0.000000 0.000000 1.688500 -33.072300 0.493700 
24.378564 17.051309 45.277714 -174.537959 -22.169499 -156.448211 -3.337447 -8.943254 -10.786614 -14.369834 11.261284 -62.270313 5.642099 17.052414 44.802888 1.826953 1.729186 20.226934 2.459700 9.764300 28.216700 12.951088 1.747969 8.941730 8.833641 -2.915407 -13.948242 -4.061085 -12.351815 33.833172 -2.343469 -17.792340 50.534486 -1.000200 6.364300 -17.845000 1.174334 1.503528 23.826773 0.012891 1.379915 -4.714029 -3.763811 0.578264 -11.010821 -1.401227 -1.721390 -13.685583 4.006305 -3.167279 -1.807533 0.473100 -1.896100 3.099900 2.638717 -7.209937 -0.835043 -78.396892 -5.417322 32.271051 33.404155 -39.348567 -19.374684 -2.223826 0.716733 -0.732755 31.500064 -10.176785 -7.135200 -7.125000 0.000000 0.000000 4.617900 17.074000 -3.068500 -5.087576 7.220145 -0.979619 90.207135 0.736789 43.214477 -50.908536 48.136999 -33.535716 2.178934 1.041522 0.840235 -22.980131 -1.930381 1.423400 7.125000 0.000000 0.000000 1.186100 -33.328600 0.339400 
